# xmcd
#
# Track frame offsets: 
#        182
#        13949
#        28381
#        43182
#        57971
#        71079
#        83079
#        96211
#        108116
#        121992
#        134973
#        150755
#        163855
#        177967
#        191247
#        205621
#        217941
#        230656
#        242703
#        255894
#        268303
#        281454
#        295287
#
# Disc length: 4118 seconds
#
# Revision: 0
# Processed by: cddbd v1.5PL3 Copyright (c) Steve Scherf et al.
# Submitted via: ExactAudioCopy v0.95a3
#
DISCID=56101417
DTITLE=T-Bone Walker - 1929 - 1946
DYEAR=2001
DGENRE=Blues
TTITLE0=Trinity River Blues
TTITLE1=Wichita Falls Blues
TTITLE2=T-Bone Blues
TTITLE3=I Got A Break Baby
TTITLE4=Mean Old World
TTITLE5=Sail On Boogie
TTITLE6=I'm Still In Love With You
TTITLE7=You Don't Love Me Blues
TTITLE8=T-Bone Boogie
TTITLE9=Mean Old World Blues
TTITLE10=Evening
TTITLE11=My Baby Left Me
TTITLE12=Come Back To Me Baby
TTITLE13=She Is Going To Ruin Me (Fast Woman)
TTITLE14=I Can't Stand Being Away From You
TTITLE15=No Worry Blues
TTITLE16=Don't Leave Me Baby
TTITLE17=Bobby Sox Blues
TTITLE18=I'm Gonna Find My Baby
TTITLE19=I'm In An Awful Mood
TTITLE20=It's A Low Down Dirty Deal
TTITLE21=Don't Give Me The Runaround
TTITLE22=Hard Pain Blues
EXTD=
EXTT0=
EXTT1=
EXTT2=
EXTT3=
EXTT4=
EXTT5=
EXTT6=
EXTT7=
EXTT8=
EXTT9=
EXTT10=
EXTT11=
EXTT12=
EXTT13=
EXTT14=
EXTT15=
EXTT16=
EXTT17=
EXTT18=
EXTT19=
EXTT20=
EXTT21=
EXTT22=
PLAYORDER=
